<svg width="32" height="44" viewBox="0 0 32 44" fill="none" xmlns="http://www.w3.org/2000/svg">
<g id="iconmonstr-twitter-4">
<path id="Vector" d="M16 0C7.164 0 0 9.8505 0 22C0 34.1495 7.164 44 16 44C24.836 44 32 34.1495 32 22C32 9.8505 24.836 0 16 0ZM24.088 17.6825C24.332 25.0892 20.3147 33.3465 13.2027 33.3465C11.04 33.3465 9.028 32.4738 7.33333 30.9797C9.36533 31.3097 11.3933 30.5323 13.0027 28.7998C11.328 28.7577 9.91333 27.2342 9.424 25.1423C10.0253 25.3 10.6173 25.2542 11.1547 25.0525C9.31333 24.5428 8.04133 22.2622 8.08267 19.822C8.6 20.2162 9.18933 20.4527 9.81733 20.4802C8.112 18.9127 7.62933 15.8162 8.632 13.4493C10.52 16.6357 13.3427 18.7312 16.5253 18.9512C15.9667 15.6585 17.784 12.485 20.2573 12.485C21.3573 12.485 22.3533 13.1248 23.052 14.1478C23.924 13.9132 24.7453 13.4732 25.484 12.87C25.1973 14.1002 24.5907 15.1305 23.8 15.7832C24.5747 15.6548 25.3133 15.3725 25.9987 14.9527C25.4867 16.0123 24.8387 16.94 24.088 17.6825V17.6825Z" fill="#2084CD"/>
</g>
</svg>
