<svg width="53" height="57" viewBox="0 0 53 57" fill="none" xmlns="http://www.w3.org/2000/svg">
<g id="iconmonstr-google-plus-1" clip-path="url(#clip0_5_5)">
<path id="Vector" fill-rule="evenodd" clip-rule="evenodd" d="M15.4583 26.125V31.825H24.2254C23.8721 34.2689 21.5754 38.9975 15.4583 38.9975C10.1804 38.9975 5.87417 34.2974 5.87417 28.5C5.87417 22.705 10.1804 18.0025 15.4583 18.0025C18.4617 18.0025 20.4712 19.38 21.6196 20.5675L25.8154 16.2213C23.1212 13.5138 19.6321 11.875 15.4583 11.875C6.91208 11.875 0 19.3088 0 28.5C0 37.6913 6.91208 45.125 15.4583 45.125C24.38 45.125 30.3005 38.38 30.3005 28.88C30.3005 27.7875 30.1879 26.9563 30.0554 26.125H15.4583V26.125ZM15.4583 26.125L53 30.875H46.375V38H41.9583V30.875H35.3333V26.125H41.9583V19H46.375V26.125H53V30.875L15.4583 26.125Z" fill="#D81F1F"/>
</g>
<defs>
<clipPath id="clip0_5_5">
<rect width="53" height="57" fill="white"/>
</clipPath>
</defs>
</svg>
