<svg width="33" height="44" viewBox="0 0 33 44" fill="none" xmlns="http://www.w3.org/2000/svg">
<g id="iconmonstr-google-plus-1" clip-path="url(#clip0_5_5)">
<path id="Vector" fill-rule="evenodd" clip-rule="evenodd" d="M9.625 20.1667V24.5667H15.0838C14.8638 26.4532 13.4337 30.1033 9.625 30.1033C6.33875 30.1033 3.6575 26.4752 3.6575 22C3.6575 17.5267 6.33875 13.8967 9.625 13.8967C11.495 13.8967 12.7462 14.96 13.4612 15.8767L16.0737 12.5217C14.3962 10.4317 12.2237 9.16666 9.625 9.16666C4.30375 9.16666 0 14.905 0 22C0 29.095 4.30375 34.8333 9.625 34.8333C15.18 34.8333 18.8664 29.6267 18.8664 22.2933C18.8664 21.45 18.7962 20.8083 18.7137 20.1667H9.625V20.1667ZM9.625 20.1667L33 23.8333H28.875V29.3333H26.125V23.8333H22V20.1667H26.125V14.6667H28.875V20.1667H33V23.8333L9.625 20.1667Z" fill="#D81F1F"/>
</g>
<defs>
<clipPath id="clip0_5_5">
<rect width="33" height="44" fill="white"/>
</clipPath>
</defs>
</svg>
