<svg width="51" height="57" viewBox="0 0 51 57" fill="none" xmlns="http://www.w3.org/2000/svg">
<g id="iconmonstr-twitter-4">
<path id="Vector" d="M25.5 0C11.4176 0 0 12.7609 0 28.5C0 44.2391 11.4176 57 25.5 57C39.5824 57 51 44.2391 51 28.5C51 12.7609 39.5824 0 25.5 0ZM38.3902 22.9069C38.7791 32.5019 32.3765 43.1989 21.0418 43.1989C17.595 43.1989 14.3884 42.0684 11.6875 40.1328C14.926 40.5603 18.1581 39.5532 20.723 37.3089C18.054 37.2542 15.7994 35.2806 15.0195 32.5707C15.9779 32.775 16.9214 32.7156 17.7778 32.4544C14.8431 31.7941 12.8159 28.8396 12.8817 25.6785C13.7062 26.1891 14.6455 26.4955 15.6464 26.5311C12.9285 24.5005 12.1593 20.4891 13.7572 17.423C16.7662 21.5508 21.2649 24.2654 26.3373 24.5504C25.4469 20.2849 28.3432 16.1737 32.2851 16.1737C34.0382 16.1737 35.6256 17.0026 36.7391 18.3279C38.1289 18.0239 39.4379 17.4539 40.6151 16.6725C40.1583 18.2661 39.1914 19.6009 37.9313 20.4464C39.1659 20.2801 40.3431 19.9144 41.4354 19.3705C40.6194 20.7433 39.5866 21.945 38.3902 22.9069V22.9069Z" fill="#2084CD"/>
</g>
</svg>
